<svg width="122" height="43" viewBox="0 0 122 43" fill="none" xmlns="http://www.w3.org/2000/svg">
<path d="M1.0127 30.3301C1.13249 29.7311 1.2972 29.2969 1.50684 29.0273C1.71647 28.7578 1.92611 28.623 2.13574 28.623C2.34538 28.5931 2.52507 28.668 2.6748 28.8477C2.82454 29.0273 2.88444 29.252 2.85449 29.5215C2.7946 30.3301 2.97428 31.2135 3.39355 32.1719C3.84277 33.1302 4.44173 34.0586 5.19043 34.957C5.96908 35.8555 6.86751 36.6641 7.88574 37.3828C8.90397 38.1016 9.95215 38.6257 11.0303 38.9551C12.1084 39.2546 13.1715 39.2995 14.2197 39.0898C15.2979 38.9102 16.2712 38.3561 17.1396 37.4277C17.499 36.8288 17.7386 35.9154 17.8584 34.6875C17.9782 33.4596 17.9932 32.0371 17.9033 30.4199C17.8434 28.7728 17.6937 27.0059 17.4541 25.1191C17.2445 23.2025 16.9899 21.2858 16.6904 19.3691C16.4209 17.4225 16.1364 15.5358 15.8369 13.709C15.5374 11.8522 15.2529 10.1751 14.9834 8.67773C14.7438 7.18034 14.5342 5.92253 14.3545 4.9043C14.2048 3.85612 14.1449 3.16732 14.1748 2.83789C14.0251 2.53841 14.0251 2.22396 14.1748 1.89453C14.3245 1.53516 14.5342 1.25065 14.8037 1.04102C15.1032 0.83138 15.4176 0.741536 15.7471 0.771484C16.1064 0.801432 16.4209 1.04102 16.6904 1.49023C17.1097 3.91602 17.5439 6.46159 17.9932 9.12695C18.4424 11.7923 18.8617 14.4876 19.251 17.2129C19.6403 19.9382 19.9548 22.6484 20.1943 25.3438C20.4339 28.0091 20.5537 30.5697 20.5537 33.0254C20.5537 34.3431 20.4339 35.571 20.1943 36.709C19.9847 37.8171 19.5954 38.7904 19.0264 39.6289C18.4574 40.4674 17.6787 41.1263 16.6904 41.6055C15.7321 42.0846 14.5192 42.3242 13.0518 42.3242C12.2132 42.3242 11.2998 42.1146 10.3115 41.6953C9.35319 41.306 8.39486 40.7819 7.43652 40.123C6.47819 39.4642 5.56478 38.7155 4.69629 37.877C3.8278 37.0085 3.0791 36.14 2.4502 35.2715C1.85124 34.373 1.40202 33.5046 1.10254 32.666C0.833008 31.7975 0.80306 31.0189 1.0127 30.3301ZM35.4678 12.4961C35.4977 12.3164 35.5876 12.1217 35.7373 11.9121C35.917 11.6725 36.1266 11.5078 36.3662 11.418C36.6357 11.3281 36.9202 11.373 37.2197 11.5527C37.5492 11.7025 37.8786 12.0618 38.208 12.6309C38.0882 14.9368 37.9385 17.2428 37.7588 19.5488C37.609 21.8249 37.5342 24.0859 37.5342 26.332C37.5641 28.5482 37.7139 30.7493 37.9834 32.9355C38.2829 35.1217 38.807 37.248 39.5557 39.3145C39.5856 39.5241 39.5107 39.7038 39.3311 39.8535C39.1514 40.0332 38.9118 40.153 38.6123 40.2129C38.3128 40.3027 38.0133 40.3327 37.7139 40.3027C37.4144 40.2728 37.1748 40.138 36.9951 39.8984L35.4229 32.3965C35.3031 32.7858 34.9587 33.3548 34.3896 34.1035C33.8506 34.8522 33.2067 35.6159 32.458 36.3945C31.7393 37.1432 30.9906 37.8171 30.2119 38.416C29.4333 38.985 28.7594 39.2845 28.1904 39.3145C26.7829 39.4043 25.6748 38.9102 24.8662 37.832C24.0576 36.7539 23.4587 35.3464 23.0693 33.6094C22.71 31.8424 22.5003 29.8809 22.4404 27.7246C22.3805 25.5684 22.3805 23.472 22.4404 21.4355C22.5003 19.3991 22.5752 17.5573 22.665 15.9102C22.7549 14.263 22.7549 13.0501 22.665 12.2715C22.7549 12.0319 22.9046 11.8522 23.1143 11.7324C23.3538 11.6126 23.6084 11.5527 23.8779 11.5527C24.1475 11.5527 24.402 11.6126 24.6416 11.7324C24.9111 11.8522 25.1058 12.0319 25.2256 12.2715C25.2855 13.2897 25.3005 14.5625 25.2705 16.0898C25.2406 17.6172 25.2106 19.2493 25.1807 20.9863C25.1507 22.6934 25.1507 24.4154 25.1807 26.1523C25.2406 27.8893 25.3604 29.4766 25.54 30.9141C25.7197 32.3216 25.9893 33.5046 26.3486 34.4629C26.738 35.3913 27.277 35.9154 27.9658 36.0352C28.4749 36.0352 28.984 35.8704 29.4932 35.541C30.0023 35.2116 30.5114 34.7923 31.0205 34.2832C31.5296 33.7441 32.0088 33.1602 32.458 32.5312C32.9072 31.8724 33.2965 31.2435 33.626 30.6445C33.9554 30.0156 34.2249 29.4466 34.4346 28.9375C34.6442 28.4284 34.764 28.0391 34.7939 27.7695C34.8239 27.4102 34.8688 26.8411 34.9287 26.0625C34.9886 25.2539 35.0335 24.3555 35.0635 23.3672C35.1234 22.349 35.1683 21.2708 35.1982 20.1328C35.2581 18.9948 35.3031 17.9316 35.333 16.9434C35.3929 15.9251 35.4229 15.0267 35.4229 14.248C35.4528 13.4395 35.4678 12.8555 35.4678 12.4961ZM44.0479 38.6406C43.958 38.1315 43.8083 37.2181 43.5986 35.9004C43.4189 34.5527 43.1943 33.0104 42.9248 31.2734C42.6852 29.5365 42.4157 27.6947 42.1162 25.748C41.8467 23.8014 41.5771 21.9596 41.3076 20.2227C41.0381 18.4857 40.7985 16.9583 40.5889 15.6406C40.3792 14.293 40.2295 13.3646 40.1396 12.8555C40.2295 12.3164 40.3942 11.9271 40.6338 11.6875C40.8734 11.418 41.1279 11.2832 41.3975 11.2832C41.667 11.2832 41.9365 11.373 42.2061 11.5527C42.4756 11.7324 42.6852 11.972 42.835 12.2715L45.5752 32.666C45.665 32.3366 45.8447 31.6927 46.1143 30.7344C46.3838 29.776 46.6833 28.668 47.0127 27.4102C47.3721 26.1224 47.7464 24.7598 48.1357 23.3223C48.555 21.8848 48.9443 20.5371 49.3037 19.2793C49.6631 17.9915 49.9775 16.8685 50.2471 15.9102C50.5166 14.9518 50.6963 14.3079 50.7861 13.9785C50.9958 13.709 51.2503 13.4844 51.5498 13.3047C51.8493 13.0951 52.1488 12.9753 52.4482 12.9453C52.7777 12.8854 53.0921 12.9453 53.3916 13.125C53.6911 13.2747 53.9456 13.5592 54.1553 13.9785L60.5342 34.7324L63.1396 12.4062C63.2594 12.1068 63.4242 11.8522 63.6338 11.6426C63.8734 11.4329 64.113 11.3431 64.3525 11.373C64.6221 11.373 64.8766 11.5378 65.1162 11.8672C65.3857 12.1667 65.6253 12.6908 65.835 13.4395C65.805 13.6191 65.7301 14.0983 65.6104 14.877C65.5205 15.6257 65.4007 16.554 65.251 17.6621C65.1012 18.7702 64.9365 20.013 64.7568 21.3906C64.5771 22.7682 64.3975 24.1758 64.2178 25.6133C64.0381 27.0508 63.8584 28.4583 63.6787 29.8359C63.499 31.2135 63.3343 32.4564 63.1846 33.5645C63.0648 34.6725 62.96 35.6159 62.8701 36.3945C62.7803 37.1432 62.7204 37.6074 62.6904 37.7871C62.4808 38.2663 62.1663 38.6107 61.7471 38.8203C61.3577 39.0299 60.9535 39.1198 60.5342 39.0898C60.1449 39.0898 59.7855 38.985 59.4561 38.7754C59.1566 38.5658 58.9619 38.2812 58.8721 37.9219L52.5381 17.168C51.999 19.6836 51.445 21.9896 50.876 24.0859C50.3369 26.1523 49.8128 28.054 49.3037 29.791C48.8245 31.528 48.3604 33.1003 47.9111 34.5078C47.4919 35.9154 47.1325 37.2031 46.833 38.3711C46.6533 38.7005 46.4287 38.9251 46.1592 39.0449C45.8896 39.1947 45.6201 39.2695 45.3506 39.2695C45.0811 39.2695 44.8265 39.2096 44.5869 39.0898C44.3473 38.9701 44.1676 38.8203 44.0479 38.6406ZM72.9775 38.8203C71.7796 38.6706 70.7913 38.1914 70.0127 37.3828C69.264 36.5742 68.665 35.5859 68.2158 34.418C67.7666 33.25 67.4671 31.9772 67.3174 30.5996C67.1976 29.1921 67.1676 27.8145 67.2275 26.4668C67.3174 24.4004 67.6917 22.4238 68.3506 20.5371C69.0394 18.6504 69.8779 17.0182 70.8662 15.6406C71.8844 14.2331 72.9925 13.1549 74.1904 12.4062C75.4183 11.6276 76.6162 11.3281 77.7842 11.5078C79.012 11.6875 80.0003 12.2715 80.749 13.2598C81.5277 14.248 82.1266 15.4609 82.5459 16.8984C82.9652 18.3359 83.2197 19.9082 83.3096 21.6152C83.3994 23.2923 83.3844 24.9095 83.2646 26.4668C83.1149 28.2337 82.7256 29.8809 82.0967 31.4082C81.4678 32.9355 80.6742 34.2533 79.7158 35.3613C78.7874 36.4694 77.7243 37.3379 76.5264 37.9668C75.3584 38.5658 74.1755 38.8503 72.9775 38.8203ZM77.335 14.0684C76.3467 13.9486 75.4183 14.263 74.5498 15.0117C73.7113 15.7305 72.9476 16.7038 72.2588 17.9316C71.5999 19.1296 71.0459 20.5072 70.5967 22.0645C70.1475 23.5918 69.848 25.1042 69.6982 26.6016C69.5785 27.6797 69.5335 28.7878 69.5635 29.9258C69.5934 31.0638 69.7282 32.097 69.9678 33.0254C70.2373 33.9538 70.6416 34.7174 71.1807 35.3164C71.7497 35.8854 72.4984 36.1699 73.4268 36.1699C74.1755 36.1999 74.9541 35.9453 75.7627 35.4062C76.6012 34.8672 77.3799 34.1484 78.0986 33.25C78.8174 32.3216 79.4463 31.2734 79.9854 30.1055C80.5544 28.9375 80.9287 27.7396 81.1084 26.5117C81.318 25.224 81.363 23.9062 81.2432 22.5586C81.1533 21.181 80.9287 19.9082 80.5693 18.7402C80.2399 17.5723 79.7907 16.569 79.2217 15.7305C78.6826 14.862 78.0537 14.3079 77.335 14.0684ZM84.9268 12.2266C84.9567 11.9271 85.0765 11.6875 85.2861 11.5078C85.4958 11.3281 85.7354 11.2233 86.0049 11.1934C86.2744 11.1335 86.5439 11.1634 86.8135 11.2832C87.083 11.373 87.3076 11.5228 87.4873 11.7324L87.3525 29.7012C87.9215 27.5449 88.4307 25.4186 88.8799 23.3223C89.359 21.196 89.943 19.2793 90.6318 17.5723C91.3206 15.8353 92.1891 14.4128 93.2373 13.3047C94.2855 12.1667 95.6781 11.5228 97.415 11.373C98.3434 11.2832 99.152 11.5677 99.8408 12.2266C100.53 12.8555 101.114 13.724 101.593 14.832C102.102 15.9401 102.521 17.2428 102.851 18.7402C103.18 20.2077 103.435 21.75 103.614 23.3672C103.824 24.9544 103.974 26.5566 104.063 28.1738C104.153 29.791 104.213 31.2884 104.243 32.666C104.273 34.0436 104.273 35.2565 104.243 36.3047C104.243 37.3529 104.228 38.1165 104.198 38.5957C103.989 39.1048 103.614 39.4342 103.075 39.584C102.566 39.7637 102.102 39.554 101.683 38.9551C101.653 38.3861 101.638 37.4128 101.638 36.0352C101.638 34.6276 101.608 33.0254 101.548 31.2285C101.518 29.4316 101.428 27.5599 101.278 25.6133C101.159 23.6367 100.934 21.8249 100.604 20.1777C100.305 18.5007 99.8708 17.1081 99.3018 16C98.7627 14.862 98.0589 14.2181 97.1904 14.0684C96.4417 13.9486 95.708 14.3529 94.9893 15.2812C94.3005 16.2096 93.6266 17.4375 92.9678 18.9648C92.3389 20.4922 91.7399 22.2142 91.1709 24.1309C90.6318 26.0475 90.1377 27.9342 89.6885 29.791C89.2692 31.6478 88.9098 33.3548 88.6104 34.9121C88.3109 36.4694 88.1162 37.6673 88.0264 38.5059C87.9365 38.7454 87.7568 38.9401 87.4873 39.0898C87.2178 39.2396 86.9183 39.3145 86.5889 39.3145C86.2894 39.3444 85.9749 39.2995 85.6455 39.1797C85.346 39.0599 85.1214 38.8353 84.9717 38.5059L84.9268 12.2266ZM111.476 38.8203C110.278 38.6706 109.289 38.1914 108.511 37.3828C107.762 36.5742 107.163 35.5859 106.714 34.418C106.265 33.25 105.965 31.9772 105.815 30.5996C105.696 29.1921 105.666 27.8145 105.726 26.4668C105.815 24.4004 106.19 22.4238 106.849 20.5371C107.537 18.6504 108.376 17.0182 109.364 15.6406C110.382 14.2331 111.491 13.1549 112.688 12.4062C113.916 11.6276 115.114 11.3281 116.282 11.5078C117.51 11.6875 118.498 12.2715 119.247 13.2598C120.026 14.248 120.625 15.4609 121.044 16.8984C121.463 18.3359 121.718 19.9082 121.808 21.6152C121.897 23.2923 121.882 24.9095 121.763 26.4668C121.613 28.2337 121.224 29.8809 120.595 31.4082C119.966 32.9355 119.172 34.2533 118.214 35.3613C117.285 36.4694 116.222 37.3379 115.024 37.9668C113.856 38.5658 112.674 38.8503 111.476 38.8203ZM115.833 14.0684C114.845 13.9486 113.916 14.263 113.048 15.0117C112.209 15.7305 111.446 16.7038 110.757 17.9316C110.098 19.1296 109.544 20.5072 109.095 22.0645C108.646 23.5918 108.346 25.1042 108.196 26.6016C108.076 27.6797 108.032 28.7878 108.062 29.9258C108.091 31.0638 108.226 32.097 108.466 33.0254C108.735 33.9538 109.14 34.7174 109.679 35.3164C110.248 35.8854 110.996 36.1699 111.925 36.1699C112.674 36.1999 113.452 35.9453 114.261 35.4062C115.099 34.8672 115.878 34.1484 116.597 33.25C117.315 32.3216 117.944 31.2734 118.483 30.1055C119.052 28.9375 119.427 27.7396 119.606 26.5117C119.816 25.224 119.861 23.9062 119.741 22.5586C119.651 21.181 119.427 19.9082 119.067 18.7402C118.738 17.5723 118.289 16.569 117.72 15.7305C117.181 14.862 116.552 14.3079 115.833 14.0684Z" fill="#262626"/>
</svg>
