<svg width="197" height="52" viewBox="0 0 197 52" fill="none" xmlns="http://www.w3.org/2000/svg">
<path d="M11.9907 40.736C8.61738 40.736 5.71171 39.563 3.27371 37.217L4.65371 34.296C6.67771 36.366 9.01604 37.401 11.6687 37.401C14.2447 37.401 16.2457 36.6037 17.6717 35.009C19.113 33.4143 19.8337 31.168 19.8337 28.27V2.05H23.3067V29.328C23.3067 32.916 22.31 35.7143 20.3167 37.723C18.3234 39.7317 15.548 40.736 11.9907 40.736ZM43.5852 40.736C40.0125 40.736 37.4595 39.931 35.9262 38.321C34.3928 36.711 33.6262 34.02 33.6262 30.248V16.448H36.9842V29.65C36.9842 32.6247 37.4902 34.7483 38.5022 36.021C39.5142 37.2783 41.2085 37.907 43.5852 37.907C45.9772 37.907 47.6715 37.2783 48.6682 36.021C49.6802 34.7483 50.1862 32.6247 50.1862 29.65V16.448H53.5442V30.248C53.5442 34.02 52.7775 36.711 51.2442 38.321C49.7262 39.931 47.1732 40.736 43.5852 40.736ZM70.7712 40L59.3402 16.448H63.1812L71.8062 35.17L79.2352 16.448H81.4892L88.9182 35.17L97.5432 16.448H101.384L89.9532 40H87.7222L80.3622 21.669L72.9792 40H70.7712ZM118.892 40.736C116.439 40.736 114.223 40.207 112.245 39.149C110.283 38.091 108.726 36.619 107.576 34.733C106.426 32.847 105.851 30.6773 105.851 28.224C105.851 25.7553 106.426 23.5857 107.576 21.715C108.726 19.829 110.283 18.357 112.245 17.299C114.208 16.241 116.424 15.712 118.892 15.712C121.346 15.712 123.554 16.241 125.516 17.299C127.494 18.357 129.058 19.829 130.208 21.715C131.358 23.5857 131.933 25.7553 131.933 28.224C131.933 30.6773 131.358 32.847 130.208 34.733C129.058 36.619 127.494 38.091 125.516 39.149C123.554 40.207 121.346 40.736 118.892 40.736ZM118.892 37.746C120.732 37.746 122.373 37.3397 123.814 36.527C125.256 35.7143 126.39 34.595 127.218 33.169C128.046 31.7277 128.46 30.0793 128.46 28.224C128.46 26.3687 128.046 24.728 127.218 23.302C126.39 21.8607 125.256 20.7337 123.814 19.921C122.373 19.1083 120.732 18.702 118.892 18.702C117.052 18.702 115.412 19.1083 113.97 19.921C112.529 20.7337 111.394 21.8607 110.566 23.302C109.738 24.728 109.324 26.3687 109.324 28.224C109.324 30.064 109.738 31.7047 110.566 33.146C111.394 34.5873 112.529 35.7143 113.97 36.527C115.412 37.3397 117.052 37.746 118.892 37.746ZM139.944 40V16.448H143.302V19.668C143.946 18.564 144.943 17.6287 146.292 16.862C147.641 16.0953 149.29 15.712 151.237 15.712C153.062 15.712 154.633 16.0877 155.952 16.839C157.271 17.5903 158.283 18.6867 158.988 20.128C159.693 21.554 160.046 23.279 160.046 25.303V40H156.688V25.947C156.688 23.509 156.121 21.6537 154.986 20.381C153.851 19.093 152.249 18.449 150.179 18.449C148.738 18.449 147.503 18.7403 146.476 19.323C145.464 19.8903 144.682 20.6493 144.13 21.6C143.578 22.5353 143.302 23.555 143.302 24.659V40H139.944ZM180.75 40.736C178.296 40.736 176.081 40.207 174.103 39.149C172.14 38.091 170.584 36.619 169.434 34.733C168.284 32.847 167.709 30.6773 167.709 28.224C167.709 25.7553 168.284 23.5857 169.434 21.715C170.584 19.829 172.14 18.357 174.103 17.299C176.065 16.241 178.281 15.712 180.75 15.712C183.203 15.712 185.411 16.241 187.374 17.299C189.352 18.357 190.916 19.829 192.066 21.715C193.216 23.5857 193.791 25.7553 193.791 28.224C193.791 30.6773 193.216 32.847 192.066 34.733C190.916 36.619 189.352 38.091 187.374 39.149C185.411 40.207 183.203 40.736 180.75 40.736ZM180.75 37.746C182.59 37.746 184.23 37.3397 185.672 36.527C187.113 35.7143 188.248 34.595 189.076 33.169C189.904 31.7277 190.318 30.0793 190.318 28.224C190.318 26.3687 189.904 24.728 189.076 23.302C188.248 21.8607 187.113 20.7337 185.672 19.921C184.23 19.1083 182.59 18.702 180.75 18.702C178.91 18.702 177.269 19.1083 175.828 19.921C174.386 20.7337 173.252 21.8607 172.424 23.302C171.596 24.728 171.182 26.3687 171.182 28.224C171.182 30.064 171.596 31.7047 172.424 33.146C173.252 34.5873 174.386 35.7143 175.828 36.527C177.269 37.3397 178.91 37.746 180.75 37.746Z" fill="#262626"/>
</svg>
