<svg width="57" height="56" viewBox="0 0 57 56" fill="none" xmlns="http://www.w3.org/2000/svg">
<path d="M35.3559 32.3313C34.6376 32.3313 34.0533 31.7498 34.0533 31.0355C34.0533 30.3212 34.6376 29.7401 35.3559 29.7401C36.0744 29.7401 36.6587 30.321 36.6587 31.0355C36.6587 31.7499 36.0744 32.3313 35.3559 32.3313ZM20.957 32.3313C20.2386 32.3313 19.6543 31.7498 19.6543 31.0355C19.6543 30.3212 20.2385 29.7401 20.957 29.7401C21.6753 29.7401 22.2596 30.321 22.2596 31.0355C22.2596 31.7499 21.6754 32.3313 20.957 32.3313ZM35.8232 24.5277L38.4267 20.0435C38.4984 19.9198 38.5178 19.7728 38.4806 19.6349C38.4434 19.4969 38.3528 19.3793 38.2285 19.3077C38.104 19.2365 37.9562 19.2173 37.8175 19.2542C37.6788 19.2912 37.5605 19.3813 37.4886 19.5049L34.8524 24.0458C32.8364 23.131 30.5724 22.6213 28.1564 22.6213C25.7405 22.6213 23.4765 23.131 21.4605 24.0458L18.8243 19.5049C18.7523 19.3813 18.634 19.2912 18.4953 19.2542C18.3566 19.2173 18.2089 19.2365 18.0844 19.3077C17.96 19.3792 17.8693 19.4969 17.8321 19.6348C17.7949 19.7728 17.8144 19.9198 17.8861 20.0435L20.4897 24.5277C16.019 26.9457 12.9613 31.4466 12.514 36.7642H43.7989C43.3512 31.4468 40.2935 26.9457 35.8232 24.5276" fill="#3DDB85"/>
</svg>
