<svg width="57" height="56" viewBox="0 0 57 56" fill="none" xmlns="http://www.w3.org/2000/svg">
<path fill-rule="evenodd" clip-rule="evenodd" d="M21.0368 40.2158L17.1461 38.8273V33.1564L21.0368 34.4747V40.2158ZM21.7505 40.2158L25.6412 38.8276V33.1564L21.7505 34.4747V40.2158ZM17.5459 32.7322L21.4836 31.6298L25.1349 32.8006L21.4836 34.0334L17.5459 32.7322ZM16.4046 32.2931L12.5139 30.9051V25.2337L16.4046 26.5519V32.2931ZM17.1183 32.2931L21.0093 30.9051V25.2337L17.1183 26.5519V32.2931ZM12.9137 24.8092L16.8517 23.707L20.503 24.8779L16.8517 26.1107L12.9137 24.8095V24.8092ZM25.4833 32.2931L21.5924 30.9051V25.2337L25.4833 26.5519V32.2931ZM26.197 32.2931L30.088 30.9051V25.2337L26.197 26.5519V32.2931ZM21.9927 24.8092L25.9304 23.707L29.5814 24.8779L25.9304 26.1107L21.9927 24.8095V24.8092ZM30.1155 24.3698L26.2245 22.9823V17.3109L30.1155 18.6289V24.3698ZM30.8292 24.3698L34.7199 22.9823V17.3109L30.8289 18.6289V24.3698H30.8292ZM26.6246 16.8867L30.5625 15.7843L34.2136 16.9549L30.5625 18.188L26.6246 16.8867ZM39.1944 24.3698L35.3035 22.9823V17.3109L39.1944 18.6289V24.3698ZM39.9079 24.3698L43.7988 22.9823V17.3109L39.9079 18.6289V24.3698ZM35.7033 16.8867L39.6413 15.7843L43.2923 16.9549L39.6413 18.1877L35.7033 16.8865" fill="#FF9900"/>
</svg>
