<svg width="57" height="56" viewBox="0 0 57 56" fill="none" xmlns="http://www.w3.org/2000/svg">
<path d="M22.9437 13.3344H32.2011L22.591 41.6668C22.5418 41.8115 22.4703 41.9477 22.379 42.0705C22.2879 42.1934 22.178 42.3011 22.0532 42.3902C21.9285 42.4792 21.7908 42.5484 21.6445 42.5951C21.4983 42.6418 21.3457 42.6659 21.1924 42.6659H13.9878C13.7539 42.6659 13.5232 42.6107 13.3151 42.5041C13.1069 42.3979 12.9271 42.2437 12.7907 42.0545C12.6542 41.8653 12.565 41.6466 12.5302 41.4163C12.4954 41.1861 12.5165 40.9508 12.5912 40.7303L21.5448 14.3327C21.5937 14.1881 21.6653 14.0519 21.7568 13.929C21.8479 13.8061 21.9582 13.6984 22.0825 13.6094C22.2073 13.5203 22.345 13.4511 22.4912 13.4044C22.6375 13.3577 22.79 13.3336 22.9433 13.3336V13.334L22.9437 13.3344Z" fill="url(#paint0_linear_102_262)"/>
<path d="M40.0091 42.6659H31.6966C31.6039 42.6659 31.5112 42.6573 31.4197 42.6398C31.3286 42.6227 31.239 42.597 31.1526 42.5632C31.0661 42.5294 30.9832 42.4874 30.9046 42.4384C30.8261 42.389 30.7524 42.3325 30.6844 42.2696L21.2514 33.5089C21.1516 33.4162 21.0822 33.2959 21.052 33.1635C21.0218 33.0311 21.0324 32.8928 21.0824 32.7665C21.1324 32.6401 21.2195 32.5317 21.3324 32.4553C21.4454 32.3791 21.5788 32.3383 21.7152 32.3383H36.3951L40.0083 42.6663L40.0091 42.6659Z" fill="#0078D4"/>
<path d="M32.2343 13.3344L25.754 32.3402L36.3423 32.3379L39.9743 42.6659H31.6931C31.6074 42.6651 31.5218 42.6574 31.4373 42.6422C31.3528 42.627 31.2699 42.6049 31.1893 42.5753C31.0278 42.5168 30.8775 42.4311 30.7451 42.3221L24.3774 36.4122L22.5948 41.64C22.5487 41.7706 22.4853 41.8947 22.4063 42.0087C22.248 42.2379 22.0314 42.4213 21.7786 42.5403C21.6528 42.5995 21.5195 42.6418 21.3824 42.6659H13.9921C13.7558 42.6667 13.5228 42.6107 13.3127 42.5026C13.1027 42.3946 12.9219 42.2378 12.7856 42.0456C12.6493 41.8535 12.5616 41.6315 12.5298 41.3984C12.4981 41.1653 12.5232 40.928 12.6029 40.7066L21.542 14.3525C21.5885 14.2051 21.6585 14.0663 21.7493 13.9411C21.8396 13.8158 21.9499 13.7054 22.0751 13.6144C22.2002 13.5234 22.3394 13.4526 22.4869 13.4052C22.6343 13.3577 22.7888 13.3336 22.944 13.3344H32.2347H32.2343Z" fill="url(#paint1_linear_102_262)"/>
<path d="M43.7214 40.7303C43.7962 40.9509 43.8172 41.186 43.7828 41.4163C43.7481 41.6465 43.659 41.8652 43.5228 42.0545C43.3864 42.2436 43.2066 42.3977 42.9985 42.504C42.7903 42.6103 42.5597 42.6658 42.3256 42.6659H32.008C32.2418 42.6659 32.4726 42.6103 32.681 42.5041C32.8891 42.3979 33.069 42.2435 33.2055 42.0545C33.342 41.8655 33.4311 41.6466 33.466 41.4163C33.5008 41.1861 33.4796 40.9508 33.4049 40.7303L24.451 14.3319C24.3524 14.0411 24.1646 13.7884 23.914 13.6093C23.7897 13.5203 23.652 13.4514 23.5061 13.4047C23.3602 13.3581 23.2077 13.3344 23.0548 13.3344H33.3721C33.5254 13.3344 33.6775 13.3581 33.8238 13.4047C33.9697 13.4514 34.1073 13.5206 34.2321 13.6093C34.3565 13.6984 34.4664 13.8061 34.5575 13.9286C34.6486 14.0511 34.7198 14.1872 34.7691 14.3319L43.723 40.7303H43.7214Z" fill="url(#paint2_linear_102_262)"/>
<defs>
<linearGradient id="paint0_linear_102_262" x1="26.3223" y1="15.5084" x2="16.7974" y2="43.803" gradientUnits="userSpaceOnUse">
<stop stop-color="#114A8B"/>
<stop offset="1" stop-color="#0669BC"/>
</linearGradient>
<linearGradient id="paint1_linear_102_262" x1="29.3219" y1="28.6771" x2="27.0992" y2="29.4352" gradientUnits="userSpaceOnUse">
<stop stop-opacity="0.3"/>
<stop offset="0.1" stop-opacity="0.2"/>
<stop offset="0.3" stop-opacity="0.1"/>
<stop offset="0.6" stop-opacity="0.1"/>
<stop offset="1" stop-opacity="0"/>
</linearGradient>
<linearGradient id="paint2_linear_102_262" x1="28.094" y1="14.6839" x2="38.5506" y2="42.6968" gradientUnits="userSpaceOnUse">
<stop stop-color="#3CCBF4"/>
<stop offset="1" stop-color="#2892DF"/>
</linearGradient>
</defs>
</svg>
