<svg width="57" height="56" viewBox="0 0 57 56" fill="none" xmlns="http://www.w3.org/2000/svg">
<path fill-rule="evenodd" clip-rule="evenodd" d="M19.012 15.6083C17.2269 15.6083 15.906 17.162 15.9652 18.847C16.0219 20.4658 15.9482 22.5624 15.4174 24.2722C14.8848 25.9867 13.9846 27.0733 12.514 27.2127V28.7872C13.9846 28.927 14.8848 30.013 15.4174 31.7278C15.9482 33.4376 16.0219 35.5342 15.9651 37.153C15.9059 38.8377 17.2268 40.3917 19.0122 40.3917H37.3033C39.0884 40.3917 40.409 38.8379 40.3499 37.153C40.2931 35.5342 40.3668 33.4376 40.8976 31.7278C41.4302 30.013 42.3282 28.9266 43.7989 28.7872V27.2127C42.3283 27.073 41.4303 25.987 40.8976 24.2722C40.3668 22.5626 40.2931 20.4658 40.3499 18.847C40.409 17.1623 39.0884 15.6083 37.3033 15.6083H19.0117H19.012ZM33.7241 30.8641C33.7241 33.1842 31.9838 34.5913 29.0958 34.5913H24.1795C24.0389 34.5913 23.904 34.5358 23.8046 34.4369C23.7051 34.338 23.6493 34.2039 23.6493 34.064V21.936C23.6493 21.7961 23.7051 21.662 23.8046 21.5631C23.904 21.4642 24.0389 21.4087 24.1795 21.4087H29.0678C31.4759 21.4087 33.0564 22.7059 33.0564 24.6975C33.0564 26.0953 31.9932 27.3468 30.6387 27.566V27.6389C32.4826 27.84 33.7241 29.11 33.7241 30.8641ZM28.5597 23.0802H25.7565V27.0177H28.1175C29.9427 27.0177 30.949 26.2869 30.949 24.9805C30.9489 23.7562 30.0836 23.0802 28.5597 23.0802ZM25.7565 28.58V32.9192H28.6629C30.5632 32.9192 31.5697 32.161 31.5697 30.7359C31.5697 29.3109 30.5349 28.5798 28.5407 28.5798H25.7565V28.58Z" fill="#7952B3"/>
</svg>
