<svg width="57" height="56" viewBox="0 0 57 56" fill="none" xmlns="http://www.w3.org/2000/svg">
<path d="M41.9358 21.6541C41.9356 21.1362 41.8242 20.6785 41.5989 20.2858C41.3777 19.8994 41.0463 19.5756 40.6017 19.3196C36.9325 17.2157 33.2598 15.1182 29.5917 13.0121C28.6029 12.4444 27.6441 12.4652 26.6625 13.0411C25.2021 13.8975 17.89 18.0634 15.7112 19.3185C14.8138 19.8351 14.3772 20.6257 14.377 21.6532C14.3756 25.8843 14.377 30.1155 14.3756 34.3466C14.3756 34.8532 14.4824 35.3021 14.6978 35.6889C14.9192 36.0869 15.2552 36.4196 15.71 36.6813C17.889 37.9364 25.2019 42.102 26.6621 42.9587C27.6441 43.5349 28.6029 43.5555 29.5921 42.9877C33.2602 40.8815 36.9332 38.784 40.6029 36.68C41.0577 36.4184 41.3937 36.0855 41.6151 35.6879C41.8301 35.3009 41.9372 34.8521 41.9372 34.3454C41.9372 34.3454 41.9372 25.8854 41.9358 21.6541Z" fill="#A179DC"/>
<path d="M28.1986 27.9586L14.6978 35.6889C14.9192 36.0869 15.2552 36.4195 15.71 36.6813C17.889 37.9363 25.202 42.1019 26.6621 42.9587C27.6441 43.5349 28.6029 43.5555 29.5921 42.9876C33.2602 40.8814 36.9332 38.7839 40.6029 36.68C41.0577 36.4183 41.3937 36.0855 41.6151 35.6878L28.1986 27.9586Z" fill="#280068"/>
<path d="M41.9359 21.6541C41.9357 21.1362 41.8243 20.6785 41.599 20.2858L28.1986 27.9588L41.6152 35.6879C41.8302 35.301 41.9371 34.8522 41.9373 34.3455C41.9373 34.3455 41.9373 25.8854 41.9359 21.6541Z" fill="#390091"/>
<path d="M36.1474 25.0688V26.5138H37.6004V25.0688H38.3269V26.5138H39.7799V27.2363H38.3269V28.6811H39.7799V29.4036H38.3269V30.8485H37.6004V29.4036H36.1474V30.8485H35.4208V29.4036H33.9679V28.6811H35.4208V27.2363H33.9679V26.5138H35.4208V25.0688H36.1474ZM37.6004 27.2362H36.1474V28.6811H37.6004V27.2362Z" fill="white"/>
<path d="M28.2282 17.8121C32.0181 17.8121 35.3269 19.8589 37.0993 22.9013L37.082 22.872L32.6229 25.4252C31.7444 23.946 30.1339 22.9477 28.2863 22.9271L28.2281 22.9268C25.4108 22.9268 23.1268 25.1982 23.1268 27.9998C23.1259 28.8828 23.3579 29.7507 23.7996 30.5167C24.6789 32.0433 26.332 33.0729 28.2282 33.0729C30.1362 33.0729 31.7987 32.0302 32.6734 30.4873L32.6522 30.5243L37.1045 33.0893C35.3516 36.1059 32.0881 38.1464 28.3423 38.187L28.2282 38.1877C24.4264 38.1877 21.1082 36.1283 19.3403 33.0698C18.4772 31.5767 17.9834 29.8457 17.9834 27.9998C17.9834 22.3734 22.57 17.812 28.2281 17.812L28.2282 17.8121Z" fill="white"/>
</svg>
