<svg width="57" height="56" viewBox="0 0 57 56" fill="none" xmlns="http://www.w3.org/2000/svg">
<path fill-rule="evenodd" clip-rule="evenodd" d="M42.2666 21.2487L42.3942 21.545C43.3306 23.5979 43.7988 25.7566 43.7988 28C43.7988 36.5714 36.7757 43.5556 28.1564 43.5556C19.5371 43.5556 12.5139 36.5714 12.5139 28C12.5139 19.4286 19.5371 12.4445 28.1564 12.4445C30.689 12.4445 33.0938 13.0371 35.3072 14.1376L35.6051 14.2857L35.3498 14.4974C34.7113 15.0053 34.2218 15.6402 33.9026 16.381L33.8175 16.5926L33.626 16.5079C31.9021 15.7037 30.0718 15.2804 28.1564 15.2804C21.0907 15.2804 15.3657 20.9736 15.3657 28C15.3657 35.0265 21.0907 40.7196 28.1564 40.7196C35.2221 40.7196 40.947 35.0053 40.947 28C40.947 26.3281 40.6278 24.6772 39.968 23.1323L39.8829 22.9206L40.0957 22.836C40.8405 22.5608 41.5216 22.0953 42.0537 21.5027L42.2666 21.2487ZM38.3931 21.545C40.1915 21.545 41.6494 20.0953 41.6494 18.3069C41.6494 16.5186 40.1915 15.0688 38.3931 15.0688C36.5948 15.0688 35.1369 16.5186 35.1369 18.3069C35.1369 20.0953 36.5948 21.545 38.3931 21.545ZM28.1563 20.9101C24.2191 20.9101 21.0267 24.0847 21.0267 28.0001C21.0267 31.9154 24.2191 35.09 28.1563 35.09C32.0935 35.09 35.2858 31.9154 35.2858 28.0001C35.2858 24.0847 32.0935 20.9101 28.1563 20.9101Z" fill="#3880FF"/>
</svg>
