<svg width="57" height="56" viewBox="0 0 57 56" fill="none" xmlns="http://www.w3.org/2000/svg">
<path d="M28.0437 12.5254C20.1017 12.5254 20.5975 15.9504 20.5975 15.9504L20.6064 19.4988H28.1853V20.5642H17.5961C17.5961 20.5642 12.514 19.991 12.514 27.96C12.514 35.9292 16.9498 35.6465 16.9498 35.6465H19.5971V31.9485C19.5971 31.9485 19.4543 27.5374 23.9621 27.5374H31.4791C31.4791 27.5374 35.7023 27.6052 35.7023 23.4784V16.6549C35.7023 16.6549 36.3438 12.5254 28.0437 12.5254ZM23.8647 14.9116C24.0438 14.9115 24.2211 14.9464 24.3866 15.0145C24.5521 15.0826 24.7025 15.1825 24.8291 15.3084C24.9558 15.4343 25.0562 15.5839 25.1247 15.7484C25.1931 15.913 25.2283 16.0894 25.2281 16.2675C25.2283 16.4456 25.1931 16.622 25.1247 16.7866C25.0562 16.9511 24.9558 17.1007 24.8291 17.2266C24.7025 17.3526 24.5521 17.4524 24.3866 17.5205C24.2211 17.5886 24.0438 17.6235 23.8647 17.6234C23.6856 17.6235 23.5082 17.5886 23.3427 17.5205C23.1772 17.4524 23.0269 17.3526 22.9002 17.2266C22.7736 17.1007 22.6731 16.9511 22.6047 16.7866C22.5362 16.622 22.5011 16.4456 22.5012 16.2675C22.5011 16.0894 22.5362 15.913 22.6047 15.7484C22.6731 15.5839 22.7736 15.4343 22.9002 15.3084C23.0269 15.1825 23.1772 15.0826 23.3427 15.0145C23.5082 14.9464 23.6856 14.9115 23.8647 14.9116Z" fill="url(#paint0_linear_102_182)"/>
<path d="M28.2693 43.4747C36.2113 43.4747 35.7155 40.0497 35.7155 40.0497L35.7066 36.5014H28.1275V35.4361H38.7168C38.7168 35.4361 43.7989 36.0092 43.7989 28.04C43.7989 20.0709 39.3631 20.3535 39.3631 20.3535H36.7158V24.0514C36.7158 24.0514 36.8585 28.4626 32.3508 28.4626H24.8338C24.8338 28.4626 20.6105 28.3948 20.6105 32.5217V39.3453C20.6105 39.3453 19.9692 43.4747 28.2692 43.4747H28.2693ZM32.4483 41.0887C32.2692 41.0889 32.0919 41.0539 31.9264 40.9858C31.7609 40.9178 31.6105 40.8179 31.4839 40.692C31.3572 40.566 31.2568 40.4165 31.1883 40.2519C31.1199 40.0873 31.0847 39.9109 31.0849 39.7328C31.0847 39.5547 31.1198 39.3783 31.1883 39.2137C31.2567 39.0492 31.3572 38.8996 31.4838 38.7737C31.6105 38.6477 31.7608 38.5478 31.9263 38.4797C32.0918 38.4117 32.2692 38.3767 32.4483 38.3768C32.6274 38.3767 32.8048 38.4116 32.9703 38.4797C33.1358 38.5478 33.2861 38.6477 33.4128 38.7736C33.5394 38.8996 33.6399 39.0491 33.7083 39.2137C33.7768 39.3782 33.8119 39.5546 33.8118 39.7327C33.8119 39.9108 33.7768 40.0872 33.7083 40.2518C33.6399 40.4164 33.5394 40.5659 33.4128 40.6918C33.2861 40.8178 33.1358 40.9176 32.9703 40.9857C32.8048 41.0538 32.6274 41.0888 32.4483 41.0886V41.0887Z" fill="url(#paint1_linear_102_182)"/>
<defs>
<linearGradient id="paint0_linear_102_182" x1="15.5204" y1="15.3091" x2="30.9388" y2="30.6589" gradientUnits="userSpaceOnUse">
<stop stop-color="#387EB8"/>
<stop offset="1" stop-color="#366994"/>
</linearGradient>
<linearGradient id="paint1_linear_102_182" x1="25.0367" y1="25.1107" x2="41.5985" y2="40.8545" gradientUnits="userSpaceOnUse">
<stop stop-color="#FFE052"/>
<stop offset="1" stop-color="#FFC331"/>
</linearGradient>
</defs>
</svg>
